<?xml version="1.0" encoding="UTF-8"?>
<!DOCTYPE svg PUBLIC "-//W3C//DTD SVG 1.1//EN" "http://www.w3.org/Graphics/SVG/1.1/DTD/svg11.dtd">
<svg xmlns="http://www.w3.org/2000/svg" version="1.1" width="237px" height="77px" style="shape-rendering:geometricPrecision; text-rendering:geometricPrecision; image-rendering:optimizeQuality; fill-rule:evenodd; clip-rule:evenodd" xmlns:xlink="http://www.w3.org/1999/xlink">
<g><path style="opacity:1" fill="#fafafa" d="M -0.5,-0.5 C 78.5,-0.5 157.5,-0.5 236.5,-0.5C 236.5,25.1667 236.5,50.8333 236.5,76.5C 157.5,76.5 78.5,76.5 -0.5,76.5C -0.5,50.8333 -0.5,25.1667 -0.5,-0.5 Z"/></g>
<g><path style="opacity:1" fill="#ccc4d1" d="M 69.5,11.5 C 66.5081,12.1319 65.8414,13.7985 67.5,16.5C 66.1667,17.8333 64.8333,17.8333 63.5,16.5C 64.3094,14.9291 64.6427,13.2624 64.5,11.5C 63.1667,11.5 61.8333,11.5 60.5,11.5C 60.4332,13.4008 60.7665,15.2341 61.5,17C 59.4767,19.1749 58.1434,21.6749 57.5,24.5C 53.6249,24.0845 49.9582,24.5845 46.5,26C 48.3817,26.1981 50.0484,26.6981 51.5,27.5C 51.5,28.1667 51.1667,28.5 50.5,28.5C 49.2946,27.3143 47.9613,27.3143 46.5,28.5C 45.6993,26.9582 45.366,25.2915 45.5,23.5C 45.5,23.1667 45.5,22.8333 45.5,22.5C 49.0641,23.4227 52.7307,23.756 56.5,23.5C 56.2267,21.549 56.8934,20.049 58.5,19C 58.1667,18.6667 57.8333,18.3333 57.5,18C 58.5,17.6667 59.5,17.3333 60.5,17C 59.565,14.6194 59.2317,12.1194 59.5,9.5C 63.0781,9.54877 66.4115,10.2154 69.5,11.5 Z"/></g>
<g><path style="opacity:1" fill="#4a4057" d="M 43.5,21.5 C 44.1667,21.8333 44.8333,22.1667 45.5,22.5C 45.5,22.8333 45.5,23.1667 45.5,23.5C 43.1998,25.2018 40.5331,25.8685 37.5,25.5C 44.1937,23.8244 43.8603,22.6577 36.5,22C 38.8098,21.5034 41.1432,21.3367 43.5,21.5 Z"/></g>
<g><path style="opacity:1" fill="#bbb7c1" d="M 188.5,26.5 C 187.833,25.5 187.167,24.5 186.5,23.5C 184.735,22.5386 182.735,22.2053 180.5,22.5C 180.5,23.5 180.5,24.5 180.5,25.5C 179.566,24.4324 179.232,23.099 179.5,21.5C 182.187,21.3359 184.854,21.5026 187.5,22C 188.38,23.3561 188.714,24.8561 188.5,26.5 Z"/></g>
<g><path style="opacity:1" fill="#82788d" d="M 43.5,21.5 C 41.1432,21.3367 38.8098,21.5034 36.5,22C 43.8603,22.6577 44.1937,23.8244 37.5,25.5C 36.1001,24.9002 35.1001,23.9002 34.5,22.5C 35.5145,21.2353 37.0145,20.5687 39,20.5C 40.7067,20.5085 42.2067,20.8418 43.5,21.5 Z"/></g>
<g><path style="opacity:1" fill="#736b81" d="M 96.5,23.5 C 92.0293,22.9106 88.0293,23.5772 84.5,25.5C 83.596,24.791 83.2627,23.791 83.5,22.5C 88.0323,22.1818 92.3656,22.5151 96.5,23.5 Z"/></g>
<g><path style="opacity:1" fill="#2e2c4e" d="M 69.5,11.5 C 70.5791,13.0806 70.5791,14.7473 69.5,16.5C 69.7517,18.0729 70.4183,19.4062 71.5,20.5C 70.8333,21.1667 70.1667,21.8333 69.5,22.5C 67.9519,22.1788 67.2852,21.1788 67.5,19.5C 66.1667,19.5 64.8333,19.5 63.5,19.5C 63.5,20.5 63.5,21.5 63.5,22.5C 62.1779,22.33 61.0113,22.6634 60,23.5C 59.5002,32.1603 59.3336,40.8269 59.5,49.5C 59.5,50.1667 59.1667,50.5 58.5,50.5C 46.1622,50.3335 33.8288,50.5001 21.5,51C 20.944,51.3826 20.6107,51.8826 20.5,52.5C 19.5222,52.811 18.8555,53.4777 18.5,54.5C 20.9749,54.9642 22.9749,55.9642 24.5,57.5C 21.8333,57.5 19.1667,57.5 16.5,57.5C 16.5,56.5 16.5,55.5 16.5,54.5C 17.065,51.1916 19.065,49.1916 22.5,48.5C 23.5,48.5 24.5,48.5 25.5,48.5C 26.1667,48.5 26.8333,48.5 27.5,48.5C 37.5,48.5 47.5,48.5 57.5,48.5C 57.5,41.5 57.5,34.5 57.5,27.5C 56.5,27.5 55.5,27.5 54.5,27.5C 53.5,27.5 52.5,27.5 51.5,27.5C 50.0484,26.6981 48.3817,26.1981 46.5,26C 49.9582,24.5845 53.6249,24.0845 57.5,24.5C 58.1434,21.6749 59.4767,19.1749 61.5,17C 60.7665,15.2341 60.4332,13.4008 60.5,11.5C 61.8333,11.5 63.1667,11.5 64.5,11.5C 64.6427,13.2624 64.3094,14.9291 63.5,16.5C 64.8333,17.8333 66.1667,17.8333 67.5,16.5C 65.8414,13.7985 66.5081,12.1319 69.5,11.5 Z"/></g>
<g><path style="opacity:1" fill="#2c213f" d="M 96.5,23.5 C 96.8417,24.3382 97.5084,24.6716 98.5,24.5C 100.199,28.3036 99.5327,31.637 96.5,34.5C 97.7023,37.5963 99.369,40.263 101.5,42.5C 100.081,43.4511 98.4147,43.7845 96.5,43.5C 94.6902,40.697 93.3568,37.697 92.5,34.5C 91.5,34.5 90.5,34.5 89.5,34.5C 89.5578,37.6644 90.2245,40.6644 91.5,43.5C 89.1667,43.5 86.8333,43.5 84.5,43.5C 85.719,37.357 85.719,31.357 84.5,25.5C 88.0293,23.5772 92.0293,22.9106 96.5,23.5 Z"/></g>
<g><path style="opacity:1" fill="#ede9f1" d="M 161.5,21.5 C 161.5,23.1667 161.5,24.8333 161.5,26.5C 162.833,26.5 164.167,26.5 165.5,26.5C 165.5,25.1667 165.5,23.8333 165.5,22.5C 166.151,23.0906 166.818,23.7573 167.5,24.5C 169.643,23.2463 171.643,23.2463 173.5,24.5C 171.191,25.3877 169.524,27.0544 168.5,29.5C 169.268,33.4452 169.768,37.4452 170,41.5C 171.789,43.229 173.956,43.8957 176.5,43.5C 173.318,44.3511 170.318,44.3511 167.5,43.5C 167.737,42.209 167.404,41.209 166.5,40.5C 166.5,36.1667 166.5,31.8333 166.5,27.5C 164.265,27.2053 162.265,27.5386 160.5,28.5C 160.5,29.5 160.5,30.5 160.5,31.5C 160.5,34.1667 160.5,36.8333 160.5,39.5C 159.5,39.5 158.5,39.5 157.5,39.5C 157.5,35.5 157.5,31.5 157.5,27.5C 157.389,26.8826 157.056,26.3826 156.5,26C 158.083,24.2417 159.75,22.7417 161.5,21.5 Z"/></g>
<g><path style="opacity:1" fill="#474255" d="M 161.5,21.5 C 163.099,21.2322 164.432,21.5655 165.5,22.5C 165.5,23.8333 165.5,25.1667 165.5,26.5C 164.167,26.5 162.833,26.5 161.5,26.5C 161.5,24.8333 161.5,23.1667 161.5,21.5 Z"/></g>
<g><path style="opacity:1" fill="#32213c" d="M 34.5,22.5 C 35.1001,23.9002 36.1001,24.9002 37.5,25.5C 40.5331,25.8685 43.1998,25.2018 45.5,23.5C 45.366,25.2915 45.6993,26.9582 46.5,28.5C 45.791,29.404 44.791,29.7373 43.5,29.5C 43.5,28.5 43.5,27.5 43.5,26.5C 40.6146,26.1936 37.9479,26.5269 35.5,27.5C 33.6427,26.973 31.6427,26.973 29.5,27.5C 28.8333,27.5 28.1667,27.5 27.5,27.5C 27.5,27.1667 27.5,26.8333 27.5,26.5C 29.9013,25.3126 32.2347,23.9793 34.5,22.5 Z"/></g>
<g><path style="opacity:1" fill="#3ea6e9" d="M 69.5,22.5 C 70.6935,22.9704 71.3601,23.9704 71.5,25.5C 71.0543,28.2933 69.721,30.6267 67.5,32.5C 68.7496,35.807 69.4162,39.307 69.5,43C 69.4982,46.3518 69.1649,49.5185 68.5,52.5C 69.0787,44.9126 68.0787,37.5793 65.5,30.5C 63.9547,29.5481 62.288,29.2148 60.5,29.5C 60.824,36.3543 60.4907,43.021 59.5,49.5C 59.3336,40.8269 59.5002,32.1603 60,23.5C 61.0113,22.6634 62.1779,22.33 63.5,22.5C 63.5,21.5 63.5,20.5 63.5,19.5C 64.8333,19.5 66.1667,19.5 67.5,19.5C 67.2852,21.1788 67.9519,22.1788 69.5,22.5 Z"/></g>
<g><path style="opacity:1" fill="#ad8f97" d="M 35.5,27.5 C 37.9479,26.5269 40.6146,26.1936 43.5,26.5C 43.5,27.5 43.5,28.5 43.5,29.5C 41.5214,27.8325 39.188,27.1658 36.5,27.5C 36.1667,27.5 35.8333,27.5 35.5,27.5 Z"/></g>
<g><path style="opacity:1" fill="#e3dfe9" d="M 98.5,24.5 C 100.5,25.8333 102.5,27.1667 104.5,28.5C 104.5,29.1667 104.5,29.8333 104.5,30.5C 101.959,34.3243 101.959,38.3243 104.5,42.5C 103.5,42.5 102.5,42.5 101.5,42.5C 99.369,40.263 97.7023,37.5963 96.5,34.5C 99.5327,31.637 100.199,28.3036 98.5,24.5 Z"/></g>
<g><path style="opacity:1" fill="#2c203e" d="M 186.5,23.5 C 187.167,24.5 187.833,25.5 188.5,26.5C 189.345,27.6715 190.011,29.0048 190.5,30.5C 190.629,32.2161 190.962,33.8828 191.5,35.5C 191.328,37.4918 191.995,39.1585 193.5,40.5C 192.3,41.2916 190.967,41.2916 189.5,40.5C 187.84,36.6335 186.34,32.6335 185,28.5C 184.238,32.5874 184.404,36.5874 185.5,40.5C 185.209,41.6491 184.376,42.3158 183,42.5C 181.624,42.3158 180.791,41.6491 180.5,40.5C 181.167,40.5 181.5,40.1667 181.5,39.5C 182.19,34.767 182.856,29.9336 183.5,25C 183.167,24.6667 182.833,24.3333 182.5,24C 183.793,23.51 185.127,23.3433 186.5,23.5 Z"/></g>
<g><path style="opacity:1" fill="#d8d3df" d="M 89.5,25.5 C 94.3148,24.8551 95.9814,26.6885 94.5,31C 92.8659,31.4935 91.1992,31.6602 89.5,31.5C 89.5,29.5 89.5,27.5 89.5,25.5 Z"/></g>
<g><path style="opacity:1" fill="#7d758a" d="M 147.5,27.5 C 147.5,31.5 147.5,35.5 147.5,39.5C 146.518,36.0381 146.185,32.3714 146.5,28.5C 145.167,28.5 143.833,28.5 142.5,28.5C 142.5,29.5 142.5,30.5 142.5,31.5C 140.883,32.038 139.216,32.3713 137.5,32.5C 138.091,31.8485 138.757,31.1818 139.5,30.5C 138.051,29.8281 136.718,29.1614 135.5,28.5C 139.452,27.7279 143.452,27.3946 147.5,27.5 Z"/></g>
<g><path style="opacity:1" fill="#9691a2" d="M 173.5,24.5 C 174.404,25.209 174.737,26.209 174.5,27.5C 175.833,27.5 177.167,27.5 178.5,27.5C 178.5,28.8333 178.5,30.1667 178.5,31.5C 177.167,31.5 175.833,31.5 174.5,31.5C 174.5,34.1667 174.5,36.8333 174.5,39.5C 173.523,36.7131 173.19,33.7131 173.5,30.5C 178.833,29.8333 178.833,29.1667 173.5,28.5C 173.5,27.1667 173.5,25.8333 173.5,24.5 Z"/></g>
<g><path style="opacity:1" fill="#6c454a" d="M 29.5,27.5 C 31.6427,26.973 33.6427,26.973 35.5,27.5C 35.8333,27.5 36.1667,27.5 36.5,27.5C 36.5,28.1667 36.5,28.8333 36.5,29.5C 35.1667,29.5 33.8333,29.5 32.5,29.5C 32.1788,27.9519 31.1788,27.2852 29.5,27.5 Z"/></g>
<g><path style="opacity:1" fill="#746d82" d="M 111.5,27.5 C 111.5,27.8333 111.5,28.1667 111.5,28.5C 109.035,28.767 106.701,29.4336 104.5,30.5C 104.5,29.8333 104.5,29.1667 104.5,28.5C 106.764,27.7814 109.097,27.448 111.5,27.5 Z"/></g>
<g><path style="opacity:1" fill="#312743" d="M 111.5,28.5 C 114.172,30.3914 115.172,33.0581 114.5,36.5C 111.833,36.5 109.167,36.5 106.5,36.5C 106.263,37.791 106.596,38.791 107.5,39.5C 109.844,39.9397 111.844,40.9397 113.5,42.5C 111.283,43.3686 108.95,43.702 106.5,43.5C 105.833,43.1667 105.167,42.8333 104.5,42.5C 101.959,38.3243 101.959,34.3243 104.5,30.5C 106.701,29.4336 109.035,28.767 111.5,28.5 Z"/></g>
<g><path style="opacity:1" fill="#edd2d3" d="M 27.5,27.5 C 28.1667,27.5 28.8333,27.5 29.5,27.5C 31.1788,27.2852 32.1788,27.9519 32.5,29.5C 30.0274,29.0882 28.6941,30.0882 28.5,32.5C 27.8333,32.5 27.1667,32.5 26.5,32.5C 26.6287,30.7839 26.962,29.1172 27.5,27.5 Z"/></g>
<g><path style="opacity:1" fill="#a29cad" d="M 84.5,25.5 C 85.719,31.357 85.719,37.357 84.5,43.5C 84.2795,37.7098 84.2795,31.7098 84.5,25.5 Z"/></g>
<g><path style="opacity:1" fill="#aaa4b4" d="M 151.5,28.5 C 153.265,27.5386 155.265,27.2053 157.5,27.5C 157.5,31.5 157.5,35.5 157.5,39.5C 156.518,36.0381 156.185,32.3714 156.5,28.5C 154.833,28.5 153.167,28.5 151.5,28.5 Z"/></g>
<g><path style="opacity:1" fill="#f89153" d="M 36.5,29.5 C 38.9892,29.2978 41.3225,29.7978 43.5,31C 44.5981,31.7697 44.5981,32.603 43.5,33.5C 39.4295,33.7662 35.4295,33.4328 31.5,32.5C 31.1667,32.1667 30.8333,31.8333 30.5,31.5C 32.6309,30.8313 34.6309,30.1646 36.5,29.5 Z"/></g>
<g><path style="opacity:1" fill="#dc8a63" d="M 36.5,27.5 C 39.188,27.1658 41.5214,27.8325 43.5,29.5C 44.791,29.7373 45.791,29.404 46.5,28.5C 47.9613,27.3143 49.2946,27.3143 50.5,28.5C 49.6492,32.0706 47.3158,33.7372 43.5,33.5C 44.5981,32.603 44.5981,31.7697 43.5,31C 41.3225,29.7978 38.9892,29.2978 36.5,29.5C 36.5,28.8333 36.5,28.1667 36.5,27.5 Z"/></g>
<g><path style="opacity:1" fill="#574e64" d="M 186.5,23.5 C 185.127,23.3433 183.793,23.51 182.5,24C 182.833,24.3333 183.167,24.6667 183.5,25C 182.856,29.9336 182.19,34.767 181.5,39.5C 181.819,34.6367 181.486,29.97 180.5,25.5C 180.5,24.5 180.5,23.5 180.5,22.5C 182.735,22.2053 184.735,22.5386 186.5,23.5 Z"/></g>
<g><path style="opacity:1" fill="#5f556c" d="M 27.5,26.5 C 27.5,26.8333 27.5,27.1667 27.5,27.5C 26.962,29.1172 26.6287,30.7839 26.5,32.5C 27.1098,33.391 27.4431,34.391 27.5,35.5C 25.5698,39.3727 24.9031,43.706 25.5,48.5C 24.5,48.5 23.5,48.5 22.5,48.5C 22.3338,42.4908 22.5005,36.4908 23,30.5C 23.7475,28.249 25.2475,26.9156 27.5,26.5 Z"/></g>
<g><path style="opacity:1" fill="#ce7f5a" d="M 32.5,29.5 C 33.8333,29.5 35.1667,29.5 36.5,29.5C 34.6309,30.1646 32.6309,30.8313 30.5,31.5C 30.8333,31.8333 31.1667,32.1667 31.5,32.5C 35.4295,33.4328 39.4295,33.7662 43.5,33.5C 41.6965,34.162 39.6965,34.4954 37.5,34.5C 34.1864,34.6575 31.1864,33.9908 28.5,32.5C 28.6941,30.0882 30.0274,29.0882 32.5,29.5 Z"/></g>
<g><path style="opacity:1" fill="#c8c1d1" d="M 106.5,31.5 C 108.288,31.2148 109.955,31.5481 111.5,32.5C 110.332,34.2174 108.665,34.8841 106.5,34.5C 106.5,33.5 106.5,32.5 106.5,31.5 Z"/></g>
<g><path style="opacity:1" fill="#aea8b5" d="M 160.5,28.5 C 162.265,27.5386 164.265,27.2053 166.5,27.5C 166.5,31.8333 166.5,36.1667 166.5,40.5C 166.167,40.5 165.833,40.5 165.5,40.5C 165.5,40.1667 165.5,39.8333 165.5,39.5C 165.5,35.8333 165.5,32.1667 165.5,28.5C 163.833,28.5 162.167,28.5 160.5,28.5 Z"/></g>
<g><path style="opacity:1" fill="#291d3b" d="M 204.5,42.5 C 201.918,42.9746 199.918,42.3079 198.5,40.5C 198.5,39.8333 198.833,39.5 199.5,39.5C 200.162,37.6965 200.495,35.6965 200.5,33.5C 200.043,30.0854 199.377,26.7521 198.5,23.5C 200.265,22.5386 202.265,22.2053 204.5,22.5C 203.167,29.1667 203.167,35.8333 204.5,42.5 Z"/></g>
<g><path style="opacity:1" fill="#858794" d="M 72.5,31.5 C 72.6663,38.8409 72.4997,46.1742 72,53.5C 71.6174,54.056 71.1174,54.3893 70.5,54.5C 71.0689,46.6879 71.7356,39.0212 72.5,31.5 Z"/></g>
<g><path style="opacity:1" fill="#281f3a" d="M 135.5,28.5 C 136.718,29.1614 138.051,29.8281 139.5,30.5C 138.757,31.1818 138.091,31.8485 137.5,32.5C 137.167,32.5 136.833,32.5 136.5,32.5C 135.844,33.6216 135.511,34.9549 135.5,36.5C 135.585,38.3328 136.252,39.6661 137.5,40.5C 139.048,40.8212 139.715,41.8212 139.5,43.5C 136.5,43.5 133.5,43.5 130.5,43.5C 131.627,41.0023 132.294,38.3356 132.5,35.5C 132.247,33.1417 131.914,30.8083 131.5,28.5C 132.833,28.5 134.167,28.5 135.5,28.5 Z"/></g>
<g><path style="opacity:1" fill="#241637" d="M 165.5,39.5 C 165.5,39.8333 165.5,40.1667 165.5,40.5C 164.448,42.256 162.781,42.9227 160.5,42.5C 160.557,41.391 160.89,40.391 161.5,39.5C 162.166,36.6417 162.833,33.6417 163.5,30.5C 164.167,33.6417 164.834,36.6417 165.5,39.5 Z"/></g>
<g><path style="opacity:1" fill="#342945" d="M 173.5,24.5 C 173.5,25.8333 173.5,27.1667 173.5,28.5C 178.833,29.1667 178.833,29.8333 173.5,30.5C 173.19,33.7131 173.523,36.7131 174.5,39.5C 175.398,40.1577 176.398,40.8243 177.5,41.5C 177.137,42.1835 176.804,42.8501 176.5,43.5C 173.956,43.8957 171.789,43.229 170,41.5C 169.768,37.4452 169.268,33.4452 168.5,29.5C 169.524,27.0544 171.191,25.3877 173.5,24.5 Z"/></g>
<g><path style="opacity:1" fill="#e1dde6" d="M 219.5,36.5 C 220.147,28.9965 216.814,26.4965 209.5,29C 207.294,33.0166 206.961,37.1833 208.5,41.5C 206.801,41.5271 205.467,42.1938 204.5,43.5C 204.5,43.1667 204.5,42.8333 204.5,42.5C 203.167,35.8333 203.167,29.1667 204.5,22.5C 202.265,22.2053 200.265,22.5386 198.5,23.5C 196.557,26.8841 195.057,30.5507 194,34.5C 193.329,35.2524 192.496,35.5858 191.5,35.5C 190.962,33.8828 190.629,32.2161 190.5,30.5C 191.151,31.0906 191.818,31.7573 192.5,32.5C 193.086,32.2907 193.586,31.9574 194,31.5C 195.114,28.5675 195.614,25.7342 195.5,23C 198.702,21.5167 202.036,21.1834 205.5,22C 207.731,24.4698 207.731,26.8031 205.5,29C 207.113,29.0885 208.28,28.2552 209,26.5C 212.333,27.1667 215.667,27.8333 219,28.5C 219.317,26.6992 219.984,26.3659 221,27.5C 221.167,29 221.333,30.5 221.5,32C 221.431,33.9855 220.765,35.4855 219.5,36.5 Z"/></g>
<g><path style="opacity:1" fill="#3b2f4b" d="M 160.5,28.5 C 162.167,28.5 163.833,28.5 165.5,28.5C 165.5,32.1667 165.5,35.8333 165.5,39.5C 164.834,36.6417 164.167,33.6417 163.5,30.5C 162.833,33.6417 162.166,36.6417 161.5,39.5C 161.806,36.6146 161.473,33.9479 160.5,31.5C 160.5,30.5 160.5,29.5 160.5,28.5 Z"/></g>
<g><path style="opacity:1" fill="#522324" d="M 51.5,27.5 C 52.5,27.5 53.5,27.5 54.5,27.5C 53.8783,28.6266 53.045,29.6266 52,30.5C 51.5007,35.4889 51.3341,40.4889 51.5,45.5C 51.5,45.8333 51.5,46.1667 51.5,46.5C 49.5864,43.3157 48.9197,39.649 49.5,35.5C 47.1432,35.3367 44.8098,35.5034 42.5,36C 41.944,36.3826 41.6107,36.8826 41.5,37.5C 38.5227,38.6776 35.5227,38.6776 32.5,37.5C 30.9724,36.6908 29.3057,36.0241 27.5,35.5C 27.4431,34.391 27.1098,33.391 26.5,32.5C 27.1667,32.5 27.8333,32.5 28.5,32.5C 31.1864,33.9908 34.1864,34.6575 37.5,34.5C 39.6965,34.4954 41.6965,34.162 43.5,33.5C 47.3158,33.7372 49.6492,32.0706 50.5,28.5C 51.1667,28.5 51.5,28.1667 51.5,27.5 Z"/></g>
<g><path style="opacity:1" fill="#332945" d="M 128.5,32.5 C 126.194,32.0074 123.861,31.6741 121.5,31.5C 121.194,34.3854 121.527,37.0521 122.5,39.5C 124.844,39.9397 126.844,40.9397 128.5,42.5C 125.609,43.4025 122.609,43.7359 119.5,43.5C 116.721,39.9814 115.888,35.9814 117,31.5C 117.708,30.6195 118.542,29.9528 119.5,29.5C 122.113,28.5651 124.779,28.3985 127.5,29C 128.337,30.0113 128.67,31.1779 128.5,32.5 Z"/></g>
<g><path style="opacity:1" fill="#f5f2f4" d="M 128.5,32.5 C 129.117,32.3893 129.617,32.056 130,31.5C 130.497,34.146 130.664,36.8127 130.5,39.5C 127.833,39.5 125.167,39.5 122.5,39.5C 121.527,37.0521 121.194,34.3854 121.5,31.5C 123.861,31.6741 126.194,32.0074 128.5,32.5 Z"/></g>
<g><path style="opacity:1" fill="#b7b0c2" d="M 135.5,28.5 C 134.167,28.5 132.833,28.5 131.5,28.5C 131.914,30.8083 132.247,33.1417 132.5,35.5C 132.294,38.3356 131.627,41.0023 130.5,43.5C 129.833,43.1667 129.167,42.8333 128.5,42.5C 126.844,40.9397 124.844,39.9397 122.5,39.5C 125.167,39.5 127.833,39.5 130.5,39.5C 130.664,36.8127 130.497,34.146 130,31.5C 129.617,32.056 129.117,32.3893 128.5,32.5C 128.67,31.1779 128.337,30.0113 127.5,29C 124.779,28.3985 122.113,28.5651 119.5,29.5C 119.5,29.1667 119.5,28.8333 119.5,28.5C 125.027,27.7145 130.36,27.7145 135.5,28.5 Z"/></g>
<g><path style="opacity:1" fill="#a19aac" d="M 114.5,36.5 C 111.841,36.9174 109.508,37.9174 107.5,39.5C 106.596,38.791 106.263,37.791 106.5,36.5C 109.167,36.5 111.833,36.5 114.5,36.5 Z"/></g>
<g><path style="opacity:1" fill="#c4bfcd" d="M 147.5,27.5 C 148.483,31.2984 148.817,35.2984 148.5,39.5C 149.5,39.5 150.5,39.5 151.5,39.5C 151.5,36.8333 151.5,34.1667 151.5,31.5C 152.477,34.2869 152.81,37.2869 152.5,40.5C 150.585,40.7845 148.919,40.4511 147.5,39.5C 147.5,35.5 147.5,31.5 147.5,27.5 Z"/></g>
<g><path style="opacity:1" fill="#a8a0af" d="M 219.5,36.5 C 216.841,36.9174 214.508,37.9174 212.5,39.5C 211.596,38.791 211.263,37.791 211.5,36.5C 214.167,36.5 216.833,36.5 219.5,36.5 Z"/></g>
<g><path style="opacity:1" fill="#6d647b" d="M 136.5,32.5 C 136.279,35.2788 136.612,37.9455 137.5,40.5C 136.252,39.6661 135.585,38.3328 135.5,36.5C 135.511,34.9549 135.844,33.6216 136.5,32.5 Z"/></g>
<g><path style="opacity:1" fill="#c9c2d0" d="M 96.5,43.5 C 95.2652,43.2786 94.2652,42.6119 93.5,41.5C 92.8182,42.2427 92.1515,42.9094 91.5,43.5C 90.2245,40.6644 89.5578,37.6644 89.5,34.5C 90.5,34.5 91.5,34.5 92.5,34.5C 93.3568,37.697 94.6902,40.697 96.5,43.5 Z"/></g>
<g><path style="opacity:1" fill="#2e2340" d="M 147.5,39.5 C 148.919,40.4511 150.585,40.7845 152.5,40.5C 152.81,37.2869 152.477,34.2869 151.5,31.5C 151.5,30.5 151.5,29.5 151.5,28.5C 153.167,28.5 154.833,28.5 156.5,28.5C 156.185,32.3714 156.518,36.0381 157.5,39.5C 158.833,40.8333 158.833,42.1667 157.5,43.5C 153.25,43.0701 148.917,42.9034 144.5,43C 143.862,39.0648 143.196,35.2315 142.5,31.5C 142.5,30.5 142.5,29.5 142.5,28.5C 143.833,28.5 145.167,28.5 146.5,28.5C 146.185,32.3714 146.518,36.0381 147.5,39.5 Z"/></g>
<g><path style="opacity:1" fill="#3cb2f8" d="M 68.5,52.5 C 68.0472,53.4584 67.3805,54.2917 66.5,55C 54.789,54.8509 43.4557,55.6843 32.5,57.5C 31.5,57.5 30.5,57.5 29.5,57.5C 28.8333,54.8333 28.1667,54.8333 27.5,57.5C 26.5,57.5 25.5,57.5 24.5,57.5C 22.9749,55.9642 20.9749,54.9642 18.5,54.5C 18.8555,53.4777 19.5222,52.811 20.5,52.5C 33.2953,51.8699 45.962,51.2033 58.5,50.5C 59.1667,50.5 59.5,50.1667 59.5,49.5C 60.4907,43.021 60.824,36.3543 60.5,29.5C 62.288,29.2148 63.9547,29.5481 65.5,30.5C 68.0787,37.5793 69.0787,44.9126 68.5,52.5 Z"/></g>
<g><path style="opacity:1" fill="#857e92" d="M 107.5,39.5 C 109.833,39.5 112.167,39.5 114.5,39.5C 114.737,40.791 114.404,41.791 113.5,42.5C 111.844,40.9397 109.844,39.9397 107.5,39.5 Z"/></g>
<g><path style="opacity:1" fill="#9a96a8" d="M 174.5,39.5 C 175.833,39.5 177.167,39.5 178.5,39.5C 178.843,41.4832 178.176,42.8166 176.5,43.5C 176.804,42.8501 177.137,42.1835 177.5,41.5C 176.398,40.8243 175.398,40.1577 174.5,39.5 Z"/></g>
<g><path style="opacity:1" fill="#d7cfdf" d="M 189.5,40.5 C 189.5,41.5 189.5,42.5 189.5,43.5C 188.778,43.0825 188.278,42.4158 188,41.5C 187.722,42.4158 187.222,43.0825 186.5,43.5C 186.737,42.209 186.404,41.209 185.5,40.5C 184.404,36.5874 184.238,32.5874 185,28.5C 186.34,32.6335 187.84,36.6335 189.5,40.5 Z"/></g>
<g><path style="opacity:1" fill="#322845" d="M 219.5,36.5 C 216.833,36.5 214.167,36.5 211.5,36.5C 211.263,37.791 211.596,38.791 212.5,39.5C 214.844,39.9397 216.844,40.9397 218.5,42.5C 214.896,44.0299 211.563,43.6966 208.5,41.5C 206.961,37.1833 207.294,33.0166 209.5,29C 216.814,26.4965 220.147,28.9965 219.5,36.5 Z"/></g>
<g><path style="opacity:1" fill="#9086a0" d="M 212.5,31.5 C 213.5,34.1667 214.5,34.1667 215.5,31.5C 216.404,32.209 216.737,33.209 216.5,34.5C 214.833,34.5 213.167,34.5 211.5,34.5C 211.263,33.209 211.596,32.209 212.5,31.5 Z"/></g>
<g><path style="opacity:1" fill="#f6eefa" d="M 212.5,31.5 C 213.5,31.5 214.5,31.5 215.5,31.5C 214.5,34.1667 213.5,34.1667 212.5,31.5 Z"/></g>
<g><path style="opacity:1" fill="#898197" d="M 212.5,39.5 C 214.833,39.5 217.167,39.5 219.5,39.5C 219.737,40.791 219.404,41.791 218.5,42.5C 216.844,40.9397 214.844,39.9397 212.5,39.5 Z"/></g>
<g><path style="opacity:1" fill="#bab6c5" d="M 160.5,31.5 C 161.473,33.9479 161.806,36.6146 161.5,39.5C 160.89,40.391 160.557,41.391 160.5,42.5C 160.5,42.8333 160.5,43.1667 160.5,43.5C 159.5,43.5 158.5,43.5 157.5,43.5C 158.833,42.1667 158.833,40.8333 157.5,39.5C 158.5,39.5 159.5,39.5 160.5,39.5C 160.5,36.8333 160.5,34.1667 160.5,31.5 Z"/></g>
<g><path style="opacity:1" fill="#443954" d="M 198.5,23.5 C 199.377,26.7521 200.043,30.0854 200.5,33.5C 200.495,35.6965 200.162,37.6965 199.5,39.5C 199.665,36.4816 199.498,33.4816 199,30.5C 196.947,34.6132 195.447,38.9465 194.5,43.5C 192.833,43.5 191.167,43.5 189.5,43.5C 189.5,42.5 189.5,41.5 189.5,40.5C 190.967,41.2916 192.3,41.2916 193.5,40.5C 191.995,39.1585 191.328,37.4918 191.5,35.5C 192.496,35.5858 193.329,35.2524 194,34.5C 195.057,30.5507 196.557,26.8841 198.5,23.5 Z"/></g>
<g><path style="opacity:1" fill="#554d62" d="M 165.5,40.5 C 165.833,40.5 166.167,40.5 166.5,40.5C 167.404,41.209 167.737,42.209 167.5,43.5C 165.167,43.5 162.833,43.5 160.5,43.5C 160.5,43.1667 160.5,42.8333 160.5,42.5C 162.781,42.9227 164.448,42.256 165.5,40.5 Z"/></g>
<g><path style="opacity:1" fill="#615a6e" d="M 180.5,40.5 C 180.791,41.6491 181.624,42.3158 183,42.5C 184.376,42.3158 185.209,41.6491 185.5,40.5C 186.404,41.209 186.737,42.209 186.5,43.5C 184.167,43.5 181.833,43.5 179.5,43.5C 179.263,42.209 179.596,41.209 180.5,40.5 Z"/></g>
<g><path style="opacity:1" fill="#534d5f" d="M 198.5,40.5 C 199.918,42.3079 201.918,42.9746 204.5,42.5C 204.5,42.8333 204.5,43.1667 204.5,43.5C 202.167,43.5 199.833,43.5 197.5,43.5C 197.263,42.209 197.596,41.209 198.5,40.5 Z"/></g>
<g><path style="opacity:1" fill="#e6e2eb" d="M 111.5,28.5 C 111.5,28.1667 111.5,27.8333 111.5,27.5C 114.206,27.5751 116.873,27.9084 119.5,28.5C 119.5,28.8333 119.5,29.1667 119.5,29.5C 118.542,29.9528 117.708,30.6195 117,31.5C 115.888,35.9814 116.721,39.9814 119.5,43.5C 115.011,44.5715 110.678,44.5715 106.5,43.5C 108.95,43.702 111.283,43.3686 113.5,42.5C 114.404,41.791 114.737,40.791 114.5,39.5C 112.167,39.5 109.833,39.5 107.5,39.5C 109.508,37.9174 111.841,36.9174 114.5,36.5C 115.172,33.0581 114.172,30.3914 111.5,28.5 Z"/></g>
<g><path style="opacity:1" fill="#d8c8c9" d="M 27.5,35.5 C 27.5,39.5 27.5,43.5 27.5,47.5C 27.5,47.8333 27.5,48.1667 27.5,48.5C 26.8333,48.5 26.1667,48.5 25.5,48.5C 24.9031,43.706 25.5698,39.3727 27.5,35.5 Z"/></g>
<g><path style="opacity:1" fill="#ed9060" d="M 27.5,35.5 C 29.3057,36.0241 30.9724,36.6908 32.5,37.5C 35.5227,38.6776 38.5227,38.6776 41.5,37.5C 43.7638,36.7814 46.0971,36.448 48.5,36.5C 48.5,40.1667 48.5,43.8333 48.5,47.5C 41.5,47.5 34.5,47.5 27.5,47.5C 27.5,43.5 27.5,39.5 27.5,35.5 Z"/></g>
<g><path style="opacity:1" fill="#fc904d" d="M 32.5,37.5 C 33.7767,38.8976 35.4434,39.5643 37.5,39.5C 40.4818,38.6677 43.4818,38.501 46.5,39C 47.435,41.3806 47.7683,43.8806 47.5,46.5C 41.1667,46.5 34.8333,46.5 28.5,46.5C 28.5,43.5 28.5,40.5 28.5,37.5C 29.8333,37.5 31.1667,37.5 32.5,37.5 Z"/></g>
<g><path style="opacity:1" fill="#b56f56" d="M 54.5,27.5 C 55.5,27.5 56.5,27.5 57.5,27.5C 57.5,34.5 57.5,41.5 57.5,48.5C 47.5,48.5 37.5,48.5 27.5,48.5C 27.5,48.1667 27.5,47.8333 27.5,47.5C 34.5,47.5 41.5,47.5 48.5,47.5C 48.5,43.8333 48.5,40.1667 48.5,36.5C 46.0971,36.448 43.7638,36.7814 41.5,37.5C 41.6107,36.8826 41.944,36.3826 42.5,36C 44.8098,35.5034 47.1432,35.3367 49.5,35.5C 48.9197,39.649 49.5864,43.3157 51.5,46.5C 52.5676,47.4345 53.901,47.7678 55.5,47.5C 55.8288,41.7945 55.4954,36.1278 54.5,30.5C 53.914,30.7093 53.414,31.0426 53,31.5C 52.8255,36.3514 52.3255,41.0181 51.5,45.5C 51.3341,40.4889 51.5007,35.4889 52,30.5C 53.045,29.6266 53.8783,28.6266 54.5,27.5 Z"/></g>
<g><path style="opacity:1" fill="#f58f55" d="M 51.5,46.5 C 51.5,46.1667 51.5,45.8333 51.5,45.5C 52.3255,41.0181 52.8255,36.3514 53,31.5C 53.414,31.0426 53.914,30.7093 54.5,30.5C 55.4954,36.1278 55.8288,41.7945 55.5,47.5C 53.901,47.7678 52.5676,47.4345 51.5,46.5 Z"/></g>
<g><path style="opacity:1" fill="#4282bb" d="M 58.5,50.5 C 45.962,51.2033 33.2953,51.8699 20.5,52.5C 20.6107,51.8826 20.944,51.3826 21.5,51C 33.8288,50.5001 46.1622,50.3335 58.5,50.5 Z"/></g>
<g><path style="opacity:1" fill="#354169" d="M 71.5,20.5 C 73.5864,21.1485 74.5864,22.6485 74.5,25C 73.9671,27.2261 73.3004,29.3927 72.5,31.5C 71.7356,39.0212 71.0689,46.6879 70.5,54.5C 69.1851,55.4756 67.8518,56.4756 66.5,57.5C 55.0069,58.824 43.6735,58.824 32.5,57.5C 43.4557,55.6843 54.789,54.8509 66.5,55C 67.3805,54.2917 68.0472,53.4584 68.5,52.5C 69.1649,49.5185 69.4982,46.3518 69.5,43C 69.4162,39.307 68.7496,35.807 67.5,32.5C 69.721,30.6267 71.0543,28.2933 71.5,25.5C 71.3601,23.9704 70.6935,22.9704 69.5,22.5C 70.1667,21.8333 70.8333,21.1667 71.5,20.5 Z"/></g>
<g><path style="opacity:1" fill="#193c69" d="M 29.5,57.5 C 28.8333,57.5 28.1667,57.5 27.5,57.5C 28.1667,54.8333 28.8333,54.8333 29.5,57.5 Z"/></g>
<g><path style="opacity:1" fill="#818093" d="M 16.5,54.5 C 16.5,55.5 16.5,56.5 16.5,57.5C 19.1667,57.5 21.8333,57.5 24.5,57.5C 21.7131,58.4767 18.7131,58.81 15.5,58.5C 15.2322,56.901 15.5655,55.5676 16.5,54.5 Z"/></g>
</svg>
